<?xml version="1.0" encoding="UTF-8"?>
<svg width="60px" height="60px" viewBox="0 0 60 60" version="1.1" xmlns="http://www.w3.org/2000/svg" xmlns:xlink="http://www.w3.org/1999/xlink">
    <!-- Generator: Sketch 60.1 (88133) - https://sketch.com -->
    <title>checklist</title>
    <desc>Created with Sketch.</desc>
    <g id="Page-1" stroke="none" stroke-width="1" fill="none" fill-rule="evenodd">
        <g id="repyute-home" transform="translate(-718.000000, -1085.000000)" fill="#196877" fill-rule="nonzero">
            <g id="checklist" transform="translate(718.000000, 1085.000000)">
                <path d="M48.2184278,23.5051546 L11.7815722,23.5051546 C10.7412371,23.5051546 9.89690722,22.6738144 9.89690722,21.6494845 C9.89690722,20.6251546 10.7412371,19.7938144 11.7815722,19.7938144 L48.2184278,19.7938144 C49.2587629,19.7938144 50.1030928,20.6251546 50.1030928,21.6494845 C50.1030928,22.6738144 49.2587629,23.5051546 48.2184278,23.5051546 Z" id="Path"></path>
                <path d="M33.3651331,34.0206186 L11.7895061,34.0206186 C10.7447915,34.0206186 9.89690722,33.1892784 9.89690722,32.1649485 C9.89690722,31.1406186 10.7447915,30.3092784 11.7895061,30.3092784 L33.3651331,30.3092784 C34.4098477,30.3092784 35.257732,31.1406186 35.257732,32.1649485 C35.257732,33.1892784 34.4098477,34.0206186 33.3651331,34.0206186 Z" id="Path"></path>
                <path d="M27.204445,43.9175258 L11.7646271,43.9175258 C10.7336457,43.9175258 9.89690722,43.0861856 9.89690722,42.0618557 C9.89690722,41.0375258 10.7336457,40.2061856 11.7646271,40.2061856 L27.204445,40.2061856 C28.2354264,40.2061856 29.0721649,41.0375258 29.0721649,42.0618557 C29.0721649,43.0861856 28.2354264,43.9175258 27.204445,43.9175258 Z" id="Path"></path>
                <path d="M46.3917526,60 C38.8898969,60 32.7835052,53.8936082 32.7835052,46.3917526 C32.7835052,38.8898969 38.8898969,32.7835052 46.3917526,32.7835052 C53.8936082,32.7835052 60,38.8898969 60,46.3917526 C60,53.8936082 53.8936082,60 46.3917526,60 Z M46.3917526,36.4948454 C40.9336082,36.4948454 36.4948454,40.9336082 36.4948454,46.3917526 C36.4948454,51.8498969 40.9336082,56.2886598 46.3917526,56.2886598 C51.8498969,56.2886598 56.2886598,51.8498969 56.2886598,46.3917526 C56.2886598,40.9336082 51.8498969,36.4948454 46.3917526,36.4948454 Z" id="Shape"></path>
                <path d="M45.2072617,51.3402062 C44.7224363,51.3402062 44.2549261,51.1497452 43.9086223,50.8083994 L40.7622045,47.7164995 C40.0300192,46.9991787 40.0201248,45.8217833 40.7374685,45.0920949 C41.4523386,44.3624065 42.6322453,44.3475654 43.3619569,45.0673597 L45.1206857,46.7938766 L49.3356983,42.0645065 C50.015938,41.3001888 51.1884239,41.2309303 51.9552395,41.9136218 C52.7220552,42.5938398 52.7888423,43.7662882 52.106129,44.5330794 L46.5949507,50.7168792 C46.2585412,51.0953277 45.7811367,51.320418 45.2740489,51.3377327 C45.2493129,51.3402062 45.2270505,51.3402062 45.2072617,51.3402062 L45.2072617,51.3402062 Z" id="Path"></path>
                <path d="M28.15,55.0515464 L6.875,55.0515464 C3.0825,55.0515464 0,51.9661575 0,48.1701031 L0,6.8814433 C0,3.08538894 3.0825,0 6.875,0 L53.125,0 C56.9175,0 60,3.08538894 60,6.8814433 L60,30.9790066 C60,32.0149766 59.16,32.8557638 58.125,32.8557638 C57.09,32.8557638 56.25,32.0149766 56.25,30.9790066 L56.25,6.8814433 C56.25,5.15732896 54.8475,3.75351453 53.125,3.75351453 L6.875,3.75351453 C5.1525,3.75351453 3.75,5.15732896 3.75,6.8814433 L3.75,48.1701031 C3.75,49.8942174 5.1525,51.2980319 6.875,51.2980319 L28.15,51.2980319 C29.185,51.2980319 30.025,52.1388191 30.025,53.1747891 C30.025,54.2107591 29.185,55.0515464 28.15,55.0515464 Z" id="Path"></path>
                <path d="M58.125,12.371134 L1.875,12.371134 C0.84,12.371134 0,11.5397938 0,10.5154639 C0,9.49113402 0.84,8.65979381 1.875,8.65979381 L58.125,8.65979381 C59.16,8.65979381 60,9.49113402 60,10.5154639 C60,11.5397938 59.16,12.371134 58.125,12.371134 Z" id="Path"></path>
            </g>
        </g>
    </g>
</svg>