<?xml version="1.0" encoding="UTF-8"?>
<svg width="60px" height="60px" viewBox="0 0 60 60" version="1.1" xmlns="http://www.w3.org/2000/svg" xmlns:xlink="http://www.w3.org/1999/xlink">
    <!-- Generator: Sketch 60.1 (88133) - https://sketch.com -->
    <title>launch</title>
    <desc>Created with Sketch.</desc>
    <g id="Page-1" stroke="none" stroke-width="1" fill="none" fill-rule="evenodd">
        <g id="repyute-home" transform="translate(-290.000000, -1084.000000)" fill="#196877" fill-rule="nonzero">
            <g id="launch" transform="translate(290.000000, 1084.000000)">
                <path d="M55.625,50 L4.375,50 C1.9625,50 0,48.0375 0,45.625 L0,14.375 C0,11.9625 1.9625,10 4.375,10 L15.625,10 C16.66,10 17.5,10.84 17.5,11.875 C17.5,12.91 16.66,13.75 15.625,13.75 L4.375,13.75 C4.03,13.75 3.75,14.03 3.75,14.375 L3.75,45.625 C3.75,45.97 4.03,46.25 4.375,46.25 L55.625,46.25 C55.97,46.25 56.25,45.97 56.25,45.625 L56.25,14.375 C56.25,14.03 55.97,13.75 55.625,13.75 L44.375,13.75 C43.34,13.75 42.5,12.91 42.5,11.875 C42.5,10.84 43.34,10 44.375,10 L55.625,10 C58.0375,10 60,11.9625 60,14.375 L60,45.625 C60,48.0375 58.0375,50 55.625,50 Z" id="Path"></path>
                <path d="M30,60 C28.896,60 28,59.1447273 28,58.0909091 L28,47.9090909 C28,46.8552727 28.896,46 30,46 C31.104,46 32,46.8552727 32,47.9090909 L32,58.0909091 C32,59.1447273 31.104,60 30,60 Z" id="Path"></path>
                <path d="M40.8166667,60 L19.85,60 C18.8288,60 18,59.104 18,58 C18,56.896 18.8288,56 19.85,56 L40.8166667,56 C41.8378667,56 42.6666667,56.896 42.6666667,58 C42.6666667,59.104 41.8378667,60 40.8166667,60 Z" id="Path"></path>
                <path d="M40.8166667,32.6666667 L19.85,32.6666667 C18.8288,32.6666667 18,31.8211069 18,30.7792565 L18,28.4615167 C18,26.6118547 18.7054667,24.8754373 19.9881333,23.5668329 L22.9333333,20.5595593 L22.9333333,13.9485905 C22.9333333,10.9941644 23.8065333,8.1454333 25.4518,5.71193241 L28.8114,0.764401132 C29.4996,-0.254800377 31.1621333,-0.254800377 31.8503333,0.764401132 L35.2074667,5.71193241 C36.8601333,8.1454333 37.7333333,10.9941644 37.7333333,13.9485905 L37.7333333,20.5595593 L40.6785333,23.5643164 C41.9612,24.8729208 42.6666667,26.6093382 42.6666667,28.4590002 L42.6666667,30.7767399 C42.6666667,31.8211069 41.8378667,32.6666667 40.8166667,32.6666667 Z M21.7,28.8918463 L38.9666667,28.8918463 L38.9666667,28.4615167 C38.9666667,27.6209901 38.646,26.8307943 38.0638667,26.2368892 L34.576,22.6759753 C34.2282,22.3236588 34.0333333,21.8429983 34.0333333,21.3422054 L34.0333333,13.9485905 C34.0333333,11.7642278 33.3870667,9.65787801 32.1685333,7.8610635 L30.3333333,5.15325899 L28.4956667,7.85854695 C27.2796,9.65787801 26.6333333,11.7642278 26.6333333,13.9485905 L26.6333333,21.3422054 C26.6333333,21.8429983 26.4384667,22.3236588 26.0906667,22.6759753 L22.6028,26.2343727 C22.0206667,26.8307943 21.7,27.6209901 21.7,28.4615167 L21.7,28.8918463 Z" id="Shape"></path>
                <path d="M35.3333333,37.3333333 C34.2293333,37.3333333 33.3333333,36.5013333 33.3333333,35.4761905 L33.3333333,30.5238095 C33.3333333,29.4986667 34.2293333,28.6666667 35.3333333,28.6666667 C36.4373333,28.6666667 37.3333333,29.4986667 37.3333333,30.5238095 L37.3333333,35.4761905 C37.3333333,36.5013333 36.4373333,37.3333333 35.3333333,37.3333333 Z" id="Path"></path>
                <path d="M24.6666667,37.3333333 C23.5626667,37.3333333 22.6666667,36.5013333 22.6666667,35.4761905 L22.6666667,30.5238095 C22.6666667,29.4986667 23.5626667,28.6666667 24.6666667,28.6666667 C25.7706667,28.6666667 26.6666667,29.4986667 26.6666667,30.5238095 L26.6666667,35.4761905 C26.6666667,36.5013333 25.7706667,37.3333333 24.6666667,37.3333333 Z" id="Path"></path>
            </g>
        </g>
    </g>
</svg>