<?xml version="1.0" encoding="UTF-8"?>
<svg width="60px" height="54px" viewBox="0 0 60 54" version="1.1" xmlns="http://www.w3.org/2000/svg" xmlns:xlink="http://www.w3.org/1999/xlink">
    <!-- Generator: Sketch 60.1 (88133) - https://sketch.com -->
    <title>server</title>
    <desc>Created with Sketch.</desc>
    <g id="Page-1" stroke="none" stroke-width="1" fill="none" fill-rule="evenodd">
        <g id="repyute-home" transform="translate(-1143.000000, -1085.000000)" fill="#196877" fill-rule="nonzero">
            <g id="server" transform="translate(1143.000000, 1085.000000)">
                <polygon id="Path" points="7.38461538 6.46153846 11.0769231 6.46153846 11.0769231 10.1538462 7.38461538 10.1538462"></polygon>
                <polygon id="Path" points="15.6923077 6.46153846 19.3846154 6.46153846 19.3846154 10.1538462 15.6923077 10.1538462"></polygon>
                <polygon id="Path" points="7.38461538 20.3076923 11.0769231 20.3076923 11.0769231 24 7.38461538 24"></polygon>
                <polygon id="Path" points="15.6923077 20.3076923 19.3846154 20.3076923 19.3846154 24 15.6923077 24"></polygon>
                <polygon id="Path" points="7.38461538 34.1538462 11.0769231 34.1538462 11.0769231 37.8461538 7.38461538 37.8461538"></polygon>
                <polygon id="Path" points="15.6923077 34.1538462 19.3846154 34.1538462 19.3846154 37.8461538 15.6923077 37.8461538"></polygon>
                <path d="M50.0988281,8.96902592 L50.0988281,0 L0,0 L0,44.7958776 L23.2916016,44.7958776 L23.2916016,50.0204607 L0,50.0204607 L0,53.5384615 L50.1042188,53.5384615 L50.1042188,50.0204607 L26.8072266,50.0204607 L26.8072266,44.7958776 L50.0988281,44.7958776 L50.0988281,37.4996611 C52.7449219,36.5909615 55.1061328,34.9302305 56.8474219,32.7249131 C58.8802734,30.15044 60,26.9253714 60,23.6438974 L60,14.1666377 L50.0988281,8.96902592 Z M3.515625,3.51800086 L46.5832031,3.51800086 L46.5832031,8.96902592 L37.4578125,13.7592532 L3.515625,13.7592532 L3.515625,3.51800086 Z M3.515625,17.277254 L36.6819141,17.277254 L36.6819141,23.6438974 C36.6819141,24.957519 36.8642578,26.2611728 37.2098438,27.5186236 L3.515625,27.5186236 L3.515625,17.277254 Z M3.515625,41.2778767 L3.515625,31.0366244 L38.6879297,31.0366244 C39.0301172,31.6235443 39.4112109,32.1891215 39.8344922,32.7250303 C41.5757813,34.9302305 43.9371094,36.5909615 46.5832031,37.4997784 L46.5832031,41.277994 L3.515625,41.277994 L3.515625,41.2778767 Z M56.484375,23.6438974 C56.484375,28.6810883 53.1566016,33.0320345 48.3408984,34.3671159 C43.5251953,33.0320345 40.1975391,28.6810883 40.1975391,23.6438974 L40.1975391,16.2938555 L48.3410156,12.0190154 L56.484375,16.2938555 L56.484375,23.6438974 Z" id="Shape"></path>
                <polygon id="Path" points="44.8610204 20.3834628 42.4615385 22.9187217 47.1008632 27.6923077 53.5384615 20.9800571 51.1230385 18.4615385 47.0849221 22.6718919"></polygon>
            </g>
        </g>
    </g>
</svg>