<?xml version="1.0" encoding="UTF-8"?>
<svg width="40px" height="40px" viewBox="0 0 40 40" version="1.1" xmlns="http://www.w3.org/2000/svg" xmlns:xlink="http://www.w3.org/1999/xlink">
    <!-- Generator: Sketch 60.1 (88133) - https://sketch.com -->
    <title>Shape</title>
    <desc>Created with Sketch.</desc>
    <g id="Page-1" stroke="none" stroke-width="1" fill="none" fill-rule="evenodd">
        <g id="repyute-home" transform="translate(-303.000000, -2607.000000)" fill="#196877" fill-rule="nonzero">
            <path d="M323,2607 C311.972066,2607 303,2615.97181 303,2626.9999 C303,2638.02798 311.972066,2647 323,2647 C334.027934,2647 343,2638.02798 343,2626.9999 C343,2615.97181 334.028143,2607 323,2607 Z M334.484353,2623.62175 L321.91937,2636.18666 C321.385107,2636.72092 320.674914,2637.01497 319.919433,2637.01497 C319.163952,2637.01497 318.453758,2636.72092 317.919495,2636.18666 L311.515647,2629.78285 C310.981384,2629.24859 310.687122,2628.5384 310.687122,2627.78292 C310.687122,2627.02723 310.981384,2626.31704 311.515647,2625.78278 C312.049701,2625.24852 312.759895,2624.95426 313.515584,2624.95426 C314.271065,2624.95426 314.981468,2625.24852 315.515522,2625.78299 L319.919224,2630.18646 L330.484061,2619.62168 C331.018324,2619.08742 331.728517,2618.79337 332.483998,2618.79337 C333.239479,2618.79337 333.949673,2619.08742 334.483936,2619.62168 C335.587105,2620.72485 335.587105,2622.519 334.484353,2623.62175 Z" id="Shape"></path>
        </g>
    </g>
</svg>